<svg width="200" height="200" viewBox="0 0 200 200" fill="none" xmlns="http://www.w3.org/2000/svg">
  <path d="M100 180C144.183 180 180 144.183 180 100C180 55.8172 144.183 20 100 20C55.8172 20 20 55.8172 20 100C20 144.183 55.8172 180 100 180Z" fill="black" fill-opacity="0.7"/>
  <path d="M81.7647 38.2353C81.7647 38.2353 65.8824 50.5882 70.5882 70.5882C75.2941 90.5882 100 90.5882 100 90.5882C100 90.5882 120 90.5882 125.882 70.5882C131.765 50.5882 118.235 38.2353 118.235 38.2353" stroke="#8B0000" stroke-width="2" stroke-linecap="round" stroke-linejoin="round"/>
  <path d="M70.5882 120C70.5882 120 49.4118 125.882 44.7059 141.176C40 156.471 55.2941 165.882 55.2941 165.882" stroke="#8B0000" stroke-width="2" stroke-linecap="round" stroke-linejoin="round"/>
  <path d="M125.882 120C125.882 120 147.059 125.882 151.765 141.176C156.471 156.471 141.176 165.882 141.176 165.882" stroke="#8B0000" stroke-width="2" stroke-linecap="round" stroke-linejoin="round"/>
  <path d="M100 90.5883C100 90.5883 84.1176 99.4118 85.2941 117.647C86.4706 135.882 100 141.177 100 141.177C100 141.177 115.882 135.882 114.706 117.647C113.529 99.4118 100 90.5883 100 90.5883Z" stroke="#8B0000" stroke-width="2" stroke-linecap="round" stroke-linejoin="round"/>
</svg>