<svg width="200" height="60" viewBox="0 0 200 60" fill="none" xmlns="http://www.w3.org/2000/svg">
  <path d="M26 10H44C48.4183 10 52 13.5817 52 18V42C52 46.4183 48.4183 50 44 50H26C21.5817 50 18 46.4183 18 42V18C18 13.5817 21.5817 10 26 10Z" fill="#1A1A1A" stroke="#392727" stroke-width="2"/>
  <path d="M26 43V17H32.4C36.1333 17 38.9333 17.8667 40.8 19.6C42.6667 21.3333 43.6 23.9333 43.6 27.4C43.6 29.2 43.2667 30.8 42.6 32.2C41.9333 33.6 40.8667 34.7333 39.4 35.6C37.9333 36.4667 36.0667 36.9333 33.8 37L30.8 37.2V43H26ZM30.8 33.4H32.6C34.4667 33.4 35.8 32.9333 36.6 32C37.4 31.0667 37.8 29.6 37.8 27.6C37.8 25.6 37.4 24.1333 36.6 23.2C35.8 22.2667 34.4667 21.8 32.6 21.8H30.8V33.4Z" fill="#d1b48c"/>
  <path d="M66.936 42.64C65.816 42.64 64.776 42.4 63.816 41.92C62.856 41.44 62.056 40.76 61.416 39.88C60.776 39 60.336 37.96 60.096 36.76C59.936 35.96 59.856 34.96 59.856 33.76C59.856 31.48 60.256 29.6 61.056 28.12C61.856 26.64 62.936 25.54 64.296 24.82C65.656 24.1 67.176 23.74 68.856 23.74C69.976 23.74 71.016 23.98 71.976 24.46C72.936 24.94 73.736 25.62 74.376 26.5C75.016 27.38 75.456 28.42 75.696 29.62C75.856 30.42 75.936 31.42 75.936 32.62C75.936 34.9 75.536 36.78 74.736 38.26C73.936 39.74 72.856 40.84 71.496 41.56C70.136 42.28 68.616 42.64 66.936 42.64ZM66.856 39.22C67.896 39.22 68.756 38.84 69.436 38.08C70.116 37.32 70.456 35.9 70.456 33.82C70.456 32.5 70.356 31.46 70.156 30.7C69.956 29.94 69.636 29.38 69.196 29.02C68.756 28.66 68.216 28.48 67.576 28.48C66.536 28.48 65.676 28.86 64.996 29.62C64.316 30.38 63.976 31.8 63.976 33.88C63.976 35.2 64.076 36.24 64.276 37C64.476 37.76 64.796 38.32 65.236 38.68C65.676 39.04 66.216 39.22 66.856 39.22Z" fill="#d1b48c"/>
  <path d="M85.8473 42L82.2673 24.38H86.2473L88.0873 35.96L90.0473 24.38H94.1673L96.2473 36.14L98.0273 24.38H101.767L98.3073 42H94.1673L91.9473 30.4L89.8473 42H85.8473Z" fill="#d1b48c"/>
  <path d="M108.292 42V24.38H110.612L110.852 26.14C111.372 25.38 112.032 24.8 112.832 24.4C113.632 24 114.592 23.8 115.712 23.8C118.152 23.8 119.792 24.74 120.632 26.62C121.152 25.78 121.852 25.12 122.732 24.64C123.612 24.16 124.632 23.92 125.792 23.92C126.952 23.92 127.932 24.14 128.732 24.58C129.532 25.02 130.132 25.72 130.532 26.68C130.932 27.64 131.132 28.88 131.132 30.4V42H126.852V31.06C126.852 30.06 126.712 29.34 126.432 28.9C126.152 28.46 125.652 28.24 124.932 28.24C124.092 28.24 123.472 28.52 123.072 29.08C122.672 29.64 122.472 30.48 122.472 31.6V42H118.432V31.06C118.432 30.06 118.292 29.34 118.012 28.9C117.732 28.46 117.232 28.24 116.512 28.24C115.672 28.24 115.052 28.52 114.652 29.08C114.252 29.64 114.052 30.48 114.052 31.6V42H108.292Z" fill="#d1b48c"/>
  <path d="M146.725 42V19.12H152.005V42H146.725Z" fill="#d1b48c"/>
  <path d="M162.28 42.64C160.68 42.64 159.26 42.38 158.02 41.86C156.78 41.34 155.8 40.52 155.08 39.4C154.36 38.28 154 36.82 154 35.02V24.38H159.28V34.18C159.28 35.22 159.52 36.02 160 36.58C160.48 37.14 161.2 37.42 162.16 37.42C163.16 37.42 163.94 37.14 164.5 36.58C165.06 36.02 165.34 35.22 165.34 34.18V24.38H170.62V42H168.3L168.06 40.12C167.62 40.88 166.98 41.48 166.14 41.92C165.3 42.4 164.28 42.64 163.08 42.64H162.28Z" fill="#d1b48c"/>
  <path d="M31 26L31 21.5C31 19.567 32.567 18 34.5 18C36.433 18 38 19.567 38 21.5L38 26" stroke="#8B0000" stroke-opacity="0.7" stroke-linecap="round"/>
  <line x1="34.5" y1="18" x2="34.5" y2="15" stroke="#8B0000" stroke-opacity="0.7" stroke-linecap="round"/>
  <path d="M176 39L198 39" stroke="#8B0000" stroke-opacity="0.4" stroke-width="2" stroke-linecap="round"/>
  <path d="M2 39L24 39" stroke="#8B0000" stroke-opacity="0.4" stroke-width="2" stroke-linecap="round"/>
</svg>